<?xml version="1.0" encoding="UTF-8"?>
<!-- Created with Inkscape (http://www.inkscape.org/) -->
<svg width="200" height="50" version="1.1" viewBox="0 0 200 50" xmlns="http://www.w3.org/2000/svg">
 <g transform="translate(-212.76 -210.23)" fill="#5092c1">
  <g transform="matrix(1.3229 0 0 1.3229 -71.276 -83.32)" stroke-width=".75591">
   <path d="m233.6 259.69h-4.6944q-3.3238 0-5.3112-1.9208-1.9703-1.9014-1.9703-5.5878v-2.8521q0-3.4536-1.3535-4.7923-1.3535-1.3581-4.3689-1.3581h-1.1993v-4.7729h1.1993q3.0154 0 4.3689-1.3387 1.3535-1.3581 1.3535-4.8117v-2.8521q0-3.6864 1.9703-5.5878 1.9874-1.9208 5.3112-1.9208h4.6944v4.3461h-1.9532q-1.028 0-1.8675 0.17463-0.82239 0.17462-1.3878 0.65967-0.58251 0.50445-0.87377 1.4746-0.29126 0.95071-0.29126 2.4641v2.1148q0 2.7163-1.3535 4.5401-1.3364 1.8238-3.8206 2.8909v0.46565q2.4843 1.0671 3.8206 2.8909 1.3535 1.8238 1.3535 4.5401v2.1148q0 1.5134 0.29126 2.4641 0.29126 0.97011 0.87377 1.4746 0.54826 0.50446 1.3878 0.65968 0.8395 0.17462 1.8675 0.17462h1.9532z" style="white-space:pre"/>
   <path d="m252.5 243.04-18.898 10.974v-5.6749l13.226-7.5534-13.226-7.5534v-5.675l18.898 10.974z" style="white-space:pre"/>
  </g>
  <g transform="matrix(1.2015 0 0 1.2019 -41.413 -41.488)" stroke-width=".83214">
   <path d="m275.22 243.23q-4.0896 0-7.1831-1.5t-4.8237-4.3846q-1.7302-2.9231-1.7302-7.2308 0-4.1923 1.7302-7.0385 1.7302-2.8846 4.8237-4.3462 3.0934-1.5 7.1831-1.5t7.1831 1.5q3.0934 1.4615 4.8237 4.3462 1.7302 2.8462 1.7302 7.0385 0 4.3077-1.7302 7.2308-1.7302 2.8846-4.8237 4.3846-3.0934 1.5-7.1831 1.5zm0-4.8846q1.7826 0 3.0934-0.92308 1.3108-0.96154 1.9924-2.7692 0.73403-1.8462 0.73403-4.5385 0-2.6154-0.73403-4.3846-0.68161-1.7692-1.9924-2.6923-1.3108-0.92308-3.0934-0.92308-1.7827 0-3.0934 0.92308-1.3108 0.92307-2.0448 2.6923-0.6816 1.7692-0.6816 4.3846 0 2.6923 0.6816 4.5385 0.73404 1.8077 2.0448 2.7692 1.3108 0.92308 3.0934 0.92308z" style="white-space:pre"/>
   <path d="m292.29 242.76v-25.077h9.4376q4.981 0 8.6511 1.3077 3.7226 1.3077 5.7674 4.0769 2.0448 2.7308 2.0448 7.0385t-2.0448 7.1154q-1.9924 2.8077-5.6101 4.1923-3.6178 1.3462-8.3366 1.3462zm7.7598-4.5769h1.2584q2.7264 0 4.7188-0.76923t3.0934-2.5385q1.1535-1.7692 1.1535-4.7692t-1.1535-4.6923q-1.1011-1.7308-3.0934-2.4231-1.9924-0.73077-4.7188-0.73077h-1.2584z" style="white-space:pre"/>
   <path d="m322.56 242.76v-25.077h22.65v4.7692h-14.89v5.0385h12.636v4.7308h-12.636v5.7692h15.415v4.7692z" style="white-space:pre"/>
   <path d="m350.43 242.76v-25.077h7.8122v10.269h0.15729l10.119-10.269h8.5463l-18.823 18.231v6.8462zm19.032 0-7.9695-11.654 4.5615-4.4231 11.954 16.077z" style="white-space:pre"/>
  </g>
 </g>
</svg>
